<svg xmlns="http://www.w3.org/2000/svg" width="31" height="31" viewBox="0 0 31 31"><defs><clipPath id="lmoda"><path fill="#fff" d="M0 31V0h31v31zM15.5 3.5c-6.627 0-12 5.373-12 12s5.373 12 12 12 12-5.373 12-12-5.373-12-12-12z"/></clipPath></defs><g><g><path fill="#fff" d="M27.5 15.5c0 6.627-5.373 12-12 12s-12-5.373-12-12 5.373-12 12-12 12 5.373 12 12z"/><path fill="none" stroke="#2a535e" stroke-linecap="round" stroke-linejoin="round" stroke-miterlimit="50" stroke-width="6" d="M27.5 15.5c0 6.627-5.373 12-12 12s-12-5.373-12-12 5.373-12 12-12 12 5.373 12 12z" clip-path="url(&quot;#lmoda&quot;)"/></g><g><path fill="#2a535e" d="M15.5 20.5l-4.763-8.25h9.526z"/></g></g></svg>